# xmcd CD database file
#
# Track frame offsets:
#	150
#	50975
#	71729
#	140367
#	190659
#	217965
#	235214
#	269976
#
# Disc length: 3920 seconds
#
# Revision: 0
# Processed by: cddbd v1.5.2PL0 Copyright (c) Steve Scherf et al.
# Submitted via: CDex 1.70beta2
#
DISCID=820f4e08
DTITLE=AL - Voi hyvin työssä - mindfulness-harjoituksia stressinhallinnan ja hyvinvoinnin tueksi
DYEAR=2012
DGENRE=New Age
TTITLE0=Johdanto
TTITLE1=Pieni hetki tietoista hengittämistä
TTITLE2=Lyhyt body scan
TTITLE3=Taukojooga seisten
TTITLE4=Pysähtymisharjoitus, tässä ja nyt
TTITLE5=Nyt on näin
TTITLE6=Kiihtyneen mielen rauhoittaminen
TTITLE7=Pieni hymy
EXTD=YEAR: 2012
EXTT0=
EXTT1=
EXTT2=
EXTT3=
EXTT4=
EXTT5=
EXTT6=
EXTT7=
PLAYORDER=
